<?xml version="1.0" encoding="UTF-8" standalone="no"?>
<!-- Created with Inkscape (http://www.inkscape.org/) -->

<svg
   width="180"
   height="180"
   viewBox="0 0 47.625 47.625"
   version="1.1"
   id="cyclerjen"
   xmlns="http://www.w3.org/2000/svg"
   xmlns:svg="http://www.w3.org/2000/svg">
  <defs
     id="defs2" />
  <g
     id="wheels"
     style="display:inline">
    <rect
       style="fill:#484848;fill-opacity:1;stroke-width:0.326031"
       id="rect3510"
       width="1.8520833"
       height="17.197916"
       x="22.886457"
       y="1.540185"
       ry="1.0032119" />
    <rect
       style="fill:#484848;fill-opacity:1;stroke-width:0.326031"
       id="rect3510-4"
       width="1.8520833"
       height="17.197916"
       x="22.886457"
       y="28.880127"
       ry="1.0032119" />
  </g>
  <g
     id="bike-body"
     style="display:inline">
    <rect
       style="display:inline;fill:#005495;fill-opacity:1;stroke-width:0.324234"
       id="rect3510-3"
       width="1.5875"
       height="19.84375"
       x="23.018749"
       y="16.536457"
       ry="0" />
  </g>
  <g
     id="handle-and-sit"
     style="display:inline">
    <path
       id="rect3510-3-3"
       style="display:inline;stroke-width:0.324234"
       d="m 33.734378,34.289493 c 0,0.109935 -0.02371,0.214511 -0.06663,0.309538 -0.04292,0.09503 -0.105057,0.180504 -0.181916,0.252239 -0.07686,0.07173 -0.168442,0.129728 -0.270256,0.169788 -0.101815,0.04006 -0.213861,0.06218 -0.331648,0.06218 h -4.535714 c 0,0 -2.93388,1.5875 -4.535715,1.5875 -1.601834,0 -4.535714,-1.5875 -4.535714,-1.5875 h -4.535714 c -0.117787,0 -0.229833,-0.02213 -0.331647,-0.06218 -0.101815,-0.04006 -0.193397,-0.09805 -0.270256,-0.169788 -0.07686,-0.07174 -0.138995,-0.157212 -0.181916,-0.252239 -0.04292,-0.09503 -0.06663,-0.199603 -0.06663,-0.309538 0,-0.109934 0.02371,-0.214511 0.06663,-0.309537 0.04292,-0.09503 0.105057,-0.180504 0.181916,-0.252239 0.07686,-0.07174 0.168441,-0.129729 0.270256,-0.169789 0.101814,-0.04006 0.21386,-0.06218 0.331647,-0.06218 h 4.535714 c 0,0 2.93388,1.5875 4.535715,1.5875 1.601834,0 4.535714,-1.5875 4.535714,-1.5875 h 4.535714 c 0.117787,0 0.229833,0.02213 0.331648,0.06218 0.101814,0.04006 0.193397,0.09805 0.270256,0.169789 0.07686,0.07173 0.138995,0.157212 0.181916,0.252239 0.04292,0.09503 0.06663,0.199603 0.06663,0.309537 z" />
    <path
       id="rect10976"
       style="stroke-width:0.234217"
       d="m 23.8125,12.962068 c 0.549671,0 1.045765,0.187766 1.404441,0.49215 0.358676,0.304384 0.579934,0.725386 0.579934,1.191856 v 1.191758 1.191759 c 0,0.466469 -0.312407,0.826882 -0.579934,1.191854 -0.37443,0.510815 -0.85477,1.355206 -1.404441,1.355206 -0.549671,0 -1.030012,-0.84439 -1.404442,-1.355206 -0.267527,-0.364972 -0.579933,-0.725385 -0.579933,-1.191854 v -1.191759 -1.191758 c 0,-0.46647 0.221257,-0.887472 0.579933,-1.191856 0.358676,-0.304384 0.85477,-0.49215 1.404442,-0.49215 z" />
  </g>
  <g
     id="legs"
     style="display:inline">
    <rect
       style="fill:#000000;stroke-width:0.278165"
       id="rect11755"
       width="3.96875"
       height="9.260417"
       x="25.000879"
       y="19.619711"
       ry="1.984375" />
    <rect
       style="fill:#000000;stroke-width:0.278165"
       id="rect11755-5"
       width="3.96875"
       height="9.260417"
       x="18.785666"
       y="21.292074"
       ry="1.984375" />
  </g>
  <g
     id="hands">
    <circle
       style="display:inline;fill:#ffb796;fill-opacity:1;stroke:none;stroke-width:0.171979"
       id="path14397-3"
       cx="32.279175"
       cy="33.043915"
       r="1.7197917" />
    <circle
       style="display:inline;fill:#ffb796;fill-opacity:1;stroke:none;stroke-width:0.171979"
       id="path14397-3-1"
       cx="15.345827"
       cy="33.037216"
       r="1.7197917" />
  </g>
  <g
     id="body"
     style="display:inline">
    <path
       id="path12206"
       style="fill:#ffffff;stroke:none;stroke-width:0.261056px;stroke-linecap:butt;stroke-linejoin:miter;stroke-opacity:1"
       d="m 23.687988,15.724975 c -0.562087,2.41e-4 -2.874698,0.03789 -3.899374,0.629419 -3.236374,1.86831 -5.199554,5.793093 -6.298562,9.435598 -0.586992,1.945498 0,6.110222 0,6.110222 h 3.499425 v -4.7625 c 0,0 1.126253,-3.023513 2.405226,-3.728972 1.297353,-0.715597 4.418047,0 4.418047,0 0,0 3.120195,-0.715597 4.417546,0 1.278974,0.705459 2.405731,3.728972 2.405731,3.728972 v 4.7625 h 3.498921 c 0,0 0.586992,-4.164724 0,-6.110222 -1.099007,-3.642505 -3.061686,-7.567288 -6.298059,-9.435598 -1.171059,-0.676035 -4.024139,-0.628902 -4.024139,-0.628902 0,0 -0.04446,-5.52e-4 -0.124762,-5.17e-4 z" />
  </g>
  <g
     id="head-and-arms"
     style="display:inline">
    <circle
       style="fill:#ffb796;fill-opacity:1;stroke:none;stroke-width:0.396874"
       id="path14397"
       cx="23.8125"
       cy="23.934122"
       r="3.96875" />
  </g>
  <g
     id="hair"
     style="display:inline">
    <path
       style="fill:#451400;fill-opacity:1;stroke:none;stroke-width:0.264583px;stroke-linecap:butt;stroke-linejoin:miter;stroke-opacity:1"
       d="m 23.283583,19.704573 c 0,0 -0.828082,-1.052775 -1.05,-1.771398 -0.09067,-0.293609 -0.04353,-0.678894 0.01316,-1.011183 0.08723,-0.511278 0.403079,-0.952457 0.496753,-1.474569 0.05638,-0.314264 -0.136558,-0.636486 -0.09531,-0.953093 0.02338,-0.179444 0.01376,-0.470007 0.190619,-0.508316 0.219554,-0.04756 0.36379,0.282247 0.476546,0.476546 0.181814,0.313298 0.237848,0.689377 0.285928,1.048403 0.03514,0.262405 -0.02609,0.530784 0,0.794244 0.02128,0.214942 0.02322,0.44601 0.12708,0.635396 0.176464,0.321789 0.631098,0.469743 0.794244,0.762474 0.163146,0.292731 0.25665,0.749169 0.168153,1.1142 -0.110802,0.45703 -0.369595,1.030422 -0.826014,1.143712 -0.140916,0.03498 -0.390542,-0.192876 -0.390542,-0.192876 z"
       id="path18576" />
  </g>
  <g
     id="helmet"
     style="display:inline">
    <circle
       style="display:inline;fill:#2c2c2c;fill-opacity:1;stroke:none;stroke-width:0.396874"
       id="path14397-4"
       cx="23.8125"
       cy="23.074787"
       r="3.96875" />
  </g>
</svg>
